<?xml version="1.0" encoding="UTF-8" standalone="no"?>
<svg
   width="1024"
   height="1024"
   viewBox="0 0 1024 1024"
   fill="none"
   version="1.1"
   id="svg8"
   sodipodi:docname="Logo torna.svg"
   inkscape:version="1.3 (0e150ed6c4, 2023-07-21)"
   inkscape:export-filename="icon.png"
   inkscape:export-xdpi="96"
   inkscape:export-ydpi="96"
   xmlns:inkscape="http://www.inkscape.org/namespaces/inkscape"
   xmlns:sodipodi="http://sodipodi.sourceforge.net/DTD/sodipodi-0.dtd"
   xmlns="http://www.w3.org/2000/svg"
   xmlns:svg="http://www.w3.org/2000/svg">
  <sodipodi:namedview
     id="namedview8"
     pagecolor="#ffffff"
     bordercolor="#000000"
     borderopacity="0.25"
     inkscape:showpageshadow="2"
     inkscape:pageopacity="0.0"
     inkscape:pagecheckerboard="0"
     inkscape:deskcolor="#d1d1d1"
     inkscape:zoom="0.358063"
     inkscape:cx="523.65086"
     inkscape:cy="384.01063"
     inkscape:window-width="1920"
     inkscape:window-height="1009"
     inkscape:window-x="-8"
     inkscape:window-y="-8"
     inkscape:window-maximized="1"
     inkscape:current-layer="svg8" />
  <g
     clip-path="url(#clip0_155_1593)"
     id="g8" />
  <g
     id="g9"
     transform="matrix(0.94518587,0,0,0.94518587,23.600341,50.818271)">
    <path
       d="m 322.23348,927.07544 c -18.54213,0 -35.0914,-3.04879 -49.62149,-9.17269 -14.53123,-6.12503 -26.81677,-14.66622 -36.85776,-25.60068 -10.03985,-10.95963 -17.68413,-24.15466 -22.95688,-39.60911 -5.24643,-15.45445 -7.8708,-32.38124 -7.8708,-50.72661 0,-18.34651 2.69987,-35.74578 8.12363,-51.20023 5.39859,-15.45502 13.21905,-28.67556 23.41105,-39.60945 10.192,-10.9602 22.47753,-19.39717 36.85661,-25.36353 14.37908,-5.96637 30.67667,-8.93633 48.91564,-8.93633 18.23894,0 34.00571,2.96996 48.20861,8.93633 14.22921,5.96636 26.3626,14.32451 36.40359,25.12695 10.03984,10.77624 17.7848,23.91796 23.18339,39.37241 5.39859,15.45445 8.12362,32.69699 8.12362,51.70016 0,19.00203 -2.69986,36.13932 -8.12362,51.4359 -5.39859,15.29772 -13.14355,28.41267 -23.18339,39.37344 -10.04099,10.95963 -22.25103,19.39671 -36.6301,25.36273 -14.37908,5.96717 -30.37351,8.93702 -47.9821,8.93702 z m 0,-52.64626 c 36.78108,0 55.17221,-24.15466 55.17221,-72.46283 0,-48.30931 -18.39113,-71.99069 -55.17221,-71.99069 -36.78111,0 -55.17224,23.99713 -55.17224,71.99069 0,47.99357 18.39113,72.46283 55.17224,72.46283 z"
       fill="#2d4c75"
       id="path1"
       style="stroke-width:11.4401" />
    <path
       d="m 134.06305,765.61653 h 56.10576 v 67.07568 c 0,12.45828 -1.76636,24.36401 -5.32309,35.69201 -3.55673,11.328 -9.10747,21.3953 -16.70028,30.1733 -7.56878,8.77915 -17.15445,15.74389 -28.73413,20.84275 -11.60485,5.1 -25.42909,7.67517 -41.499025,7.67517 -16.06878,0 -30.90318,-2.54886 -42.65904,-7.67517 C 43.497385,914.30141 33.861375,907.4156 26.267431,898.79433 18.699795,890.17306 13.19939,880.10691 9.8188355,868.62103 6.4131135,857.13516 4.7234085,844.99262 4.7234085,832.21859 V 621.39902 H 64.082725 v 63.71114 H 190.19397 v 44.07728 H 64.082725 v 96.77569 c 0,15.00829 2.69987,26.59941 8.12363,34.72075 5.39859,8.14765 14.30357,12.22147 26.66462,12.22147 12.362185,0 20.938845,-3.99488 26.665765,-11.9858 5.72692,-7.98978 8.57665,-19.31778 8.57665,-34.01032 v -61.31901 z"
       fill="#2d4c75"
       id="path2"
       style="stroke-width:11.4401" />
    <path
       d="M 454.70196,927.07544 V 689.3946 h 56.56221 v 28.49126 c 4.94213,-8.04274 10.11306,-14.32451 15.53568,-18.8453 5.39973,-4.52067 10.97107,-7.96381 16.70256,-10.3819 5.72006,-2.4181 11.49732,-3.94249 17.37754,-4.59961 5.88022,-0.65713 11.90916,-0.97253 18.08682,-0.97253 h 7.8708 v 64.23727 c -5.57134,-0.97355 -11.11979,-1.44603 -16.69113,-1.44603 -36.79141,0 -55.17567,19.16105 -55.17567,57.482 v 123.66305 h -60.26881 z"
       fill="#2d4c75"
       id="path3"
       style="stroke-width:11.4401" />
    <path
       d="M 748.06309,927.07544 V 783.12105 c 0,-18.34651 -2.91722,-30.75217 -8.79744,-37.19066 -5.88022,-6.43965 -15.92464,-9.67262 -30.1447,-9.67262 -31.23152,0 -46.82439,18.18749 -46.82439,54.58993 v 136.22774 h -60.26652 v -237.6813 h 57.48657 v 34.77303 c 7.11575,-13.53606 16.55385,-23.76032 28.27996,-30.67278 11.76044,-6.91257 26.89571,-10.38201 45.44014,-10.38201 10.82234,0 20.85532,1.68215 30.1447,5.07266 9.27793,3.39062 17.22881,8.46328 23.88696,15.21821 6.63526,6.75481 11.90915,15.06034 15.77591,24.89037 3.85532,9.83003 5.80014,21.18434 5.80014,34.06362 v 164.7182 h -60.74701 z"
       fill="#2d4c75"
       id="path4"
       style="stroke-width:11.4401" />
    <path
       d="m 968.47979,804.35848 c -3.1003,3.23297 -7.5734,5.80814 -13.4422,7.72665 -5.8802,1.94596 -14.3802,4.02235 -25.51141,6.28177 -17.30889,3.54872 -29.20661,8.04354 -35.69315,13.53594 -6.48655,5.46723 -9.73554,13.37921 -9.73554,23.68218 0,17.71502 9.73554,26.57195 29.20661,26.57195 7.72208,0 14.90647,-1.36595 21.57609,-4.10013 6.6352,-2.73305 12.3553,-6.43964 17.1487,-11.11751 4.7934,-4.679 8.6487,-10.14509 11.6003,-16.42686 2.9286,-6.28176 4.4159,-12.95821 4.4159,-20.05452 l 0.4576,-26.07316 z m 4.1642,116.40888 c -1.8648,-6.12389 -3.1117,-13.19388 -3.7066,-21.2626 -7.1158,8.38446 -16.5539,15.05977 -28.28,20.05338 -11.76041,4.99475 -25.36271,7.49099 -40.79542,7.49099 -26.2665,0 -45.50878,-6.04496 -57.72682,-18.10856 -12.2066,-12.06475 -18.30418,-27.78232 -18.30418,-47.10009 0,-17.05836 2.61979,-30.67324 7.8708,-40.81833 5.23957,-10.14509 12.50404,-18.1097 21.79342,-23.91785 9.27793,-5.80929 20.32908,-10.0673 33.14201,-12.80034 12.84724,-2.73304 26.81562,-5.23042 41.96233,-7.49099 15.13526,-2.26056 25.35126,-5.23042 30.59086,-8.93587 5.251,-3.7066 7.8708,-9.75155 7.8708,-18.1097 0,-7.7278 -3.4778,-13.77275 -10.4448,-18.10924 -6.9556,-4.33672 -16.2907,-6.51824 -28.05118,-6.51824 -13.89973,0 -23.88695,3.23286 -29.89301,9.67228 -6.02894,6.43918 -9.81562,14.98151 -11.3486,25.60023 h -56.10232 c 0.29745,-12.24779 2.24227,-23.498 5.80014,-33.82693 3.55788,-10.30309 9.27793,-19.16059 17.14873,-26.57253 7.8708,-7.41193 18.1669,-13.11552 30.83111,-17.13683 12.66421,-4.02143 28.13124,-6.04519 46.36678,-6.04519 18.23555,0 33.15345,2.1027 45.65745,6.28177 12.5155,4.17907 22.56,10.22426 30.15621,18.10924 7.5619,7.8851 13.0646,17.71502 16.4394,29.46379 3.4092,11.74854 5.1023,25.04767 5.1023,39.84546 v 150.23615 h -56.10231 z"
       fill="#2d4c75"
       id="path5"
       style="stroke-width:11.4401" />
  </g>
  <g
     id="g10"
     transform="translate(9.0211511,25.135242)">
    <path
       fill-rule="evenodd"
       clip-rule="evenodd"
       d="M 970.80932,521.5502 H 843.69802 V 85.524796 h 127.1113 z m -808.551,0 H 35.31598 V 85.524796 H 162.25832 Z M 807.23881,324.27806 H 521.20942 v 194.08499 h 286.02939 z m -322.49053,0 H 198.71889 V 518.36305 H 484.74828 Z M 198.71889,284.93766 H 484.74828 V 88.712319 H 198.71889 Z m 322.49053,0 H 807.23881 V 88.712319 H 521.20942 Z M -1.3964023,559.53743 H 1007.3541 V 47.537432 H -1.3964023 Z"
       fill="#2d4c75"
       id="path6"
       style="stroke-width:19.005" />
    <path
       fill-rule="evenodd"
       clip-rule="evenodd"
       d="m 586.83757,421.47164 47.52586,-28.59875 47.56576,-28.60066 v 37.37717 l 14.58446,-8.77651 47.52586,-28.60066 v 57.19941 57.19942 l -47.52586,-28.59875 -14.58446,-8.77653 v 37.37528 l -47.56576,-28.59875 z"
       fill="#2d4c75"
       id="path7"
       style="stroke-width:19.005" />
    <path
       fill-rule="evenodd"
       clip-rule="evenodd"
       d="m 342.88529,129.14399 c 30.00703,0 54.35627,25.36866 54.35627,56.63173 0,31.26326 -24.34924,56.6325 -54.35627,56.6325 -30.00703,0 -54.35627,-25.36924 -54.35627,-56.6325 0,-31.26307 24.34924,-56.63173 54.35627,-56.63173 z"
       fill="#2d4c75"
       id="path8"
       style="stroke-width:19.005" />
  </g>
  <defs
     id="defs8">
    <clipPath
       id="clip0_155_1593">
      <rect
         width="147"
         height="27"
         fill="#ffffff"
         id="rect8"
         x="0"
         y="0" />
    </clipPath>
  </defs>
</svg>
